<svg xmlns="http://www.w3.org/2000/svg" width="16" height="16" fill="none" viewBox="0 0 16 16">
    <path fill="#fff" d="M7.34 3.667v1H3.166c-.431 0-.786.328-.829.748l-.004.085v7.333c0 .432.328.787.748.83l.085.004H10.5c.431 0 .786-.328.829-.748l.004-.086V8.678h1v4.155c0 .975-.761 1.773-1.722 1.83l-.111.004H3.166c-.975 0-1.772-.761-1.83-1.722l-.003-.112V5.5c0-.975.761-1.772 1.722-1.83l.111-.003H7.34zm6.16-2.334l.095.004c.6.049 1.071.55 1.071 1.163v4.667h-1V3.039l-6 6.001-.707-.707 6-6H8.833v-1H13.5z"/>
</svg>
